<?xml version="1.0" encoding="utf-8"?>
<!-- Generator: Adobe Illustrator 19.0.0, SVG Export Plug-In . SVG Version: 6.00 Build 0)  -->
<svg version="1.1" id="Capa_1" xmlns="http://www.w3.org/2000/svg" xmlns:xlink="http://www.w3.org/1999/xlink" x="0px" y="0px"
	 viewBox="0 0 292.7 141.3" style="enable-background:new 0 0 292.7 141.3;" xml:space="preserve">
<style type="text/css">
	.st0{fill:#00AFBC;}
	.st1{fill:#1DB8C4;}
	.st2{fill:#21B9C5;}
	.st3{fill:#22BAC5;}
	.st4{fill:#CCCCCC;}
</style>
<g>
	<path class="st0" d="M124.3,55.2c7.1-0.1,13.6-1.5,19.6-5c3.2-1.9,6-4.2,8.4-7c1.7-2,4.7-4.1-0.7-5.6c-2.2-0.6-1.9-3.2-0.7-4.7
		c2.7-3.7,0.6-4.7-2.6-5.7c-10.1-3.1-19.7-1.8-28.9,3.1c-1.3,0.7-2.3,2-4,1.7c-0.6-10.1,6.6-21.5,17-26.7
		c15.1-7.4,33.3-1.9,41.6,12.8c1.9,3.4,3.3,7,2.9,10.9c-0.3,3.5-2.3,6-5.7,6.8c-2.8,0.6-5.7,1.1-7.2-3c-0.6-1.8-3.8-2.7-6.2-4.2
		c1.3,9.5,10.3,12.8,19.7,7.8C178,47.9,168.4,60.1,156,64C144.3,67.7,130.2,64,124.3,55.2z"/>
	<path class="st1" d="M101.1,41.8c5.5-1.7,10.5-0.4,15.3,1.8c0.9,0.4,1.6,1,1.6,2.2c0,3.3-5.9,9.8-9.7,10.5
		C115.1,45.7,114.6,44.8,101.1,41.8z"/>
	<path class="st2" d="M143.1,34.4c0,1.6-0.7,2.4-2,2.5c-1.4,0.1-2.2-0.6-2.3-2c-0.1-1.4,0.6-2.2,2-2.3
		C142.1,32.5,142.8,33.3,143.1,34.4z"/>
	<g>
		<path class="st3" d="M19.3,136.8c-0.2,0.1-0.5,0.3-0.9,0.5c-0.4,0.2-0.9,0.4-1.4,0.6c-0.6,0.2-1.2,0.3-1.9,0.4
			c-0.7,0.1-1.4,0.2-2.2,0.2c-1.6,0-3-0.3-4.3-0.8c-1.3-0.6-2.3-1.3-3.2-2.2c-0.9-0.9-1.5-2-2-3.3c-0.5-1.3-0.7-2.6-0.7-3.9
			c0-1.5,0.3-2.9,0.8-4.2c0.6-1.3,1.3-2.4,2.3-3.4c1-0.9,2.1-1.7,3.4-2.2c1.3-0.5,2.6-0.8,4.1-0.8c0.6,0,1.1,0,1.7,0.1
			c0.6,0.1,1.1,0.2,1.6,0.3c0.5,0.1,0.9,0.3,1.3,0.4c0.4,0.2,0.7,0.3,0.8,0.5c-0.2,0.3-0.3,0.5-0.4,0.6c-0.1,0.2-0.2,0.3-0.3,0.5
			c-0.1,0.2-0.2,0.4-0.3,0.6c-0.1,0.2-0.3,0.5-0.5,0.9c-0.2-0.1-0.5-0.3-0.8-0.4c-0.3-0.1-0.6-0.2-1-0.3c-0.3-0.1-0.7-0.1-1-0.2
			c-0.4,0-0.7-0.1-1-0.1c-1,0-2,0.2-2.9,0.6c-0.9,0.4-1.7,0.9-2.3,1.6c-0.6,0.6-1.1,1.4-1.5,2.3c-0.4,0.9-0.5,1.7-0.5,2.7
			c0,0.9,0.2,1.8,0.5,2.6c0.3,0.8,0.8,1.6,1.5,2.3c0.6,0.7,1.4,1.2,2.2,1.6c0.9,0.4,1.8,0.6,2.9,0.6c0.6,0,1.2-0.1,1.7-0.2
			c0.6-0.1,1.1-0.3,1.5-0.4c0.4-0.1,0.8-0.3,1.1-0.4c0.3-0.1,0.4-0.3,0.4-0.3L19.3,136.8z"/>
		<path class="st3" d="M20.2,132.4c0-0.9,0.2-1.7,0.5-2.4c0.3-0.8,0.8-1.4,1.4-2c0.6-0.6,1.3-1,2-1.3c0.8-0.3,1.6-0.5,2.5-0.5
			c0.9,0,1.7,0.2,2.5,0.5c0.8,0.3,1.4,0.8,2,1.3c0.6,0.6,1,1.2,1.3,2c0.3,0.8,0.5,1.6,0.5,2.4s-0.2,1.7-0.5,2.4
			c-0.3,0.8-0.7,1.4-1.3,2c-0.6,0.6-1.2,1-2,1.3c-0.8,0.3-1.6,0.5-2.5,0.5c-0.9,0-1.7-0.1-2.5-0.4c-0.8-0.3-1.4-0.7-2-1.3
			s-1-1.2-1.4-2C20.4,134.2,20.2,133.3,20.2,132.4z M22.9,132.4c0,0.5,0.1,1,0.3,1.4c0.2,0.4,0.4,0.8,0.8,1.1
			c0.3,0.3,0.7,0.6,1.1,0.8s0.9,0.3,1.4,0.3s1-0.1,1.4-0.3c0.4-0.2,0.8-0.4,1.1-0.8c0.3-0.3,0.6-0.7,0.8-1.1
			c0.2-0.4,0.3-0.9,0.3-1.4c0-0.5-0.1-1-0.3-1.4c-0.2-0.4-0.5-0.8-0.8-1.1c-0.3-0.3-0.7-0.6-1.1-0.8c-0.4-0.2-0.9-0.3-1.4-0.3
			s-1,0.1-1.4,0.3c-0.4,0.2-0.8,0.5-1.1,0.8c-0.3,0.3-0.6,0.7-0.8,1.1S22.9,131.9,22.9,132.4z"/>
		<path class="st3" d="M35.4,126.4h2.4c0,0.7,0.1,1.2,0.1,1.6c0,0.4,0.1,0.9,0.1,1.4c0.4-1,1-1.8,1.8-2.4c0.8-0.6,1.8-0.9,2.9-0.9
			c1.2,0,2.2,0.3,2.9,1c0.7,0.7,1.1,1.5,1.1,2.6v8.6h-2.7V131c0-0.6-0.2-1.1-0.6-1.5c-0.4-0.4-1-0.6-1.7-0.7c-0.5,0-1,0.1-1.5,0.3
			c-0.5,0.2-0.8,0.5-1.2,0.8s-0.6,0.7-0.8,1.2c-0.2,0.5-0.3,1-0.3,1.5v5.7h-2.7V126.4z"/>
		<path class="st3" d="M49.2,132.4c0-0.9,0.2-1.7,0.5-2.4c0.3-0.8,0.8-1.4,1.4-2c0.6-0.6,1.3-1,2-1.3c0.8-0.3,1.6-0.5,2.5-0.5
			c0.9,0,1.7,0.2,2.5,0.5c0.8,0.3,1.4,0.8,2,1.3c0.6,0.6,1,1.2,1.3,2c0.3,0.8,0.5,1.6,0.5,2.4s-0.2,1.7-0.5,2.4
			c-0.3,0.8-0.7,1.4-1.3,2c-0.6,0.6-1.2,1-2,1.3c-0.8,0.3-1.6,0.5-2.5,0.5c-0.9,0-1.7-0.1-2.5-0.4c-0.8-0.3-1.4-0.7-2-1.3
			s-1-1.2-1.4-2C49.4,134.2,49.2,133.3,49.2,132.4z M51.9,132.4c0,0.5,0.1,1,0.3,1.4c0.2,0.4,0.4,0.8,0.8,1.1
			c0.3,0.3,0.7,0.6,1.1,0.8s0.9,0.3,1.4,0.3s1-0.1,1.4-0.3c0.4-0.2,0.8-0.4,1.1-0.8c0.3-0.3,0.6-0.7,0.8-1.1
			c0.2-0.4,0.3-0.9,0.3-1.4c0-0.5-0.1-1-0.3-1.4c-0.2-0.4-0.5-0.8-0.8-1.1c-0.3-0.3-0.7-0.6-1.1-0.8c-0.4-0.2-0.9-0.3-1.4-0.3
			s-1,0.1-1.4,0.3c-0.4,0.2-0.8,0.5-1.1,0.8c-0.3,0.3-0.6,0.7-0.8,1.1S51.9,131.9,51.9,132.4z"/>
		<path class="st3" d="M72.3,135.2c0.3,0.4,0.6,0.7,0.8,1c0.3,0.3,0.5,0.7,0.8,1c-0.5,0.4-1.1,0.8-1.8,1c-0.7,0.3-1.4,0.4-2.2,0.4
			c-0.9,0-1.7-0.2-2.5-0.5c-0.8-0.3-1.4-0.8-2-1.3c-0.6-0.6-1-1.2-1.4-2c-0.3-0.8-0.5-1.6-0.5-2.4s0.2-1.7,0.5-2.4s0.8-1.4,1.4-2
			c0.6-0.6,1.2-1,2-1.3c0.8-0.3,1.6-0.5,2.5-0.5c0.8,0,1.5,0.1,2.2,0.4c0.7,0.3,1.3,0.6,1.9,1l-1.7,2c-0.7-0.5-1.4-0.8-2.4-0.8
			c-0.5,0-1,0.1-1.5,0.3c-0.4,0.2-0.8,0.4-1.2,0.8s-0.6,0.7-0.8,1.1c-0.2,0.4-0.3,0.9-0.3,1.4c0,0.5,0.1,1,0.3,1.4
			c0.2,0.4,0.4,0.8,0.8,1.2s0.7,0.6,1.2,0.8c0.4,0.2,0.9,0.3,1.5,0.3C70.9,136,71.7,135.8,72.3,135.2z"/>
		<path class="st3" d="M86.1,137c-0.6,0.5-1.3,0.9-2.1,1.2c-0.8,0.3-1.7,0.4-2.5,0.4c-0.9,0-1.7-0.2-2.5-0.5c-0.8-0.3-1.4-0.8-2-1.3
			c-0.6-0.6-1-1.2-1.4-2s-0.5-1.6-0.5-2.4s0.2-1.7,0.5-2.4c0.3-0.8,0.8-1.4,1.4-2c0.6-0.6,1.2-1,2-1.3c0.8-0.3,1.6-0.5,2.4-0.5
			c1.3,0,2.5,0.4,3.5,1.2c1,0.8,1.7,1.9,2.2,3.2c-0.6,0.2-1.2,0.5-1.9,0.7s-1.5,0.6-2.3,0.9c-0.8,0.3-1.6,0.6-2.4,1
			c-0.8,0.3-1.5,0.6-2.2,0.9c0.3,0.6,0.8,1,1.3,1.4c0.6,0.4,1.2,0.5,1.9,0.5c0.5,0,1-0.1,1.5-0.3c0.5-0.2,0.9-0.4,1.2-0.7L86.1,137z
			 M83.7,130c-0.2-0.4-0.6-0.7-1-0.9c-0.4-0.2-0.9-0.3-1.3-0.3c-0.5,0-1,0.1-1.4,0.3c-0.4,0.2-0.8,0.5-1.1,0.8
			c-0.3,0.3-0.6,0.7-0.8,1.1s-0.3,0.9-0.3,1.3v0.1c0.5-0.2,1-0.4,1.5-0.6c0.5-0.2,1.1-0.4,1.6-0.7c0.5-0.2,1-0.4,1.5-0.6
			C82.9,130.3,83.3,130.1,83.7,130z"/>
		<path class="st3" d="M105.7,137c-0.6,0.5-1.3,0.9-2.1,1.2c-0.8,0.3-1.7,0.4-2.5,0.4c-0.9,0-1.7-0.2-2.5-0.5
			c-0.8-0.3-1.4-0.8-2-1.3c-0.6-0.6-1-1.2-1.4-2s-0.5-1.6-0.5-2.4s0.2-1.7,0.5-2.4c0.3-0.8,0.8-1.4,1.4-2c0.6-0.6,1.2-1,2-1.3
			c0.8-0.3,1.6-0.5,2.4-0.5c1.3,0,2.5,0.4,3.5,1.2c1,0.8,1.7,1.9,2.2,3.2c-0.6,0.2-1.2,0.5-1.9,0.7s-1.5,0.6-2.3,0.9
			c-0.8,0.3-1.6,0.6-2.4,1c-0.8,0.3-1.5,0.6-2.2,0.9c0.3,0.6,0.8,1,1.3,1.4c0.6,0.4,1.2,0.5,1.9,0.5c0.5,0,1-0.1,1.5-0.3
			c0.5-0.2,0.9-0.4,1.2-0.7L105.7,137z M103.4,130c-0.2-0.4-0.6-0.7-1-0.9c-0.4-0.2-0.9-0.3-1.3-0.3c-0.5,0-1,0.1-1.4,0.3
			c-0.4,0.2-0.8,0.5-1.1,0.8c-0.3,0.3-0.6,0.7-0.8,1.1s-0.3,0.9-0.3,1.3v0.1c0.5-0.2,1-0.4,1.5-0.6c0.5-0.2,1.1-0.4,1.6-0.7
			c0.5-0.2,1-0.4,1.5-0.6C102.6,130.3,103,130.1,103.4,130z"/>
		<path class="st3" d="M111.5,138.3h-2.7v-21.9h2.7V138.3z"/>
		<path class="st3" d="M121.1,126.4h2.4c0,0.3,0,0.6,0.1,0.9s0,0.5,0.1,0.7c0,0.2,0,0.5,0.1,0.7c0,0.2,0,0.5,0.1,0.7
			c0.4-1,1-1.8,1.7-2.4c0.7-0.6,1.6-0.9,2.8-0.9c1.2,0,2.1,0.3,2.8,0.9c0.7,0.6,1.1,1.4,1.2,2.3c0.2-0.5,0.5-0.9,0.8-1.3
			c0.3-0.4,0.6-0.7,0.9-1c0.3-0.3,0.7-0.5,1.2-0.7c0.4-0.2,1-0.2,1.6-0.2c1.2,0,2.2,0.3,2.9,1c0.7,0.7,1.1,1.5,1.1,2.6v8.6h-2.7V131
			c0-0.6-0.2-1.1-0.6-1.5s-0.9-0.6-1.8-0.7c-1.1,0-2,0.4-2.6,1.1c-0.6,0.7-0.9,1.6-0.9,2.8v5.7h-2.7V131c0-0.6-0.2-1.1-0.6-1.5
			s-0.9-0.6-1.8-0.7c-1.1,0-2,0.4-2.6,1.1c-0.6,0.7-0.9,1.6-0.9,2.7v5.7h-2.7V126.4z"/>
		<path class="st3" d="M155.4,138.6h-2.2l-0.3-3.3c-0.4,1-1,1.7-1.8,2.4c-0.8,0.6-1.8,0.9-3,0.9s-2.2-0.3-2.9-1
			c-0.7-0.6-1.1-1.5-1.1-2.6v-8.7h2.7v7.4c0,0.6,0.2,1.1,0.6,1.5c0.4,0.4,0.9,0.6,1.8,0.7c0.5,0,1-0.1,1.5-0.3
			c0.4-0.2,0.8-0.4,1.2-0.8s0.6-0.7,0.8-1.2c0.2-0.5,0.3-1,0.3-1.5v-5.7h2.7V138.6z"/>
		<path class="st3" d="M158.7,126.4h2.4c0,0.7,0.1,1.2,0.1,1.6c0,0.4,0.1,0.9,0.1,1.4c0.4-1,1-1.8,1.8-2.4s1.8-0.9,2.9-0.9
			c1.2,0,2.2,0.3,2.9,1c0.7,0.7,1.1,1.5,1.1,2.6v8.6h-2.7V131c0-0.6-0.2-1.1-0.6-1.5c-0.4-0.4-1-0.6-1.7-0.7c-0.5,0-1,0.1-1.5,0.3
			c-0.5,0.2-0.8,0.5-1.2,0.8c-0.3,0.3-0.6,0.7-0.8,1.2c-0.2,0.5-0.3,1-0.3,1.5v5.7h-2.7V126.4z"/>
		<path class="st3" d="M172.6,132.4c0-0.9,0.2-1.8,0.5-2.5c0.3-0.8,0.7-1.4,1.3-2c0.6-0.6,1.2-1,1.9-1.3c0.7-0.3,1.5-0.5,2.4-0.5
			c0.6,0,1.1,0.1,1.6,0.2c0.4,0.1,0.8,0.3,1.1,0.5s0.6,0.4,0.8,0.6c0.2,0.2,0.4,0.4,0.5,0.5v-11.5h2.7v21.9h-2.7v-0.8
			c0-0.1,0-0.2,0-0.3c0-0.1,0-0.2,0-0.3c-0.2,0.2-0.4,0.3-0.6,0.5c-0.2,0.2-0.5,0.4-0.9,0.5s-0.7,0.3-1.1,0.4
			c-0.4,0.1-0.9,0.2-1.4,0.2c-1,0-1.8-0.2-2.6-0.5c-0.8-0.3-1.4-0.8-1.9-1.3c-0.5-0.6-0.9-1.2-1.2-2S172.6,133.3,172.6,132.4z
			 M175.3,132.4c0,0.5,0.1,1,0.3,1.5s0.4,0.8,0.8,1.2c0.3,0.3,0.7,0.6,1.2,0.8s0.9,0.3,1.5,0.3c0.5,0,1-0.1,1.5-0.3
			c0.5-0.2,0.8-0.4,1.2-0.8c0.3-0.3,0.6-0.7,0.8-1.2c0.2-0.4,0.3-0.9,0.3-1.4s-0.1-1-0.3-1.4c-0.2-0.4-0.4-0.8-0.8-1.1
			c-0.3-0.3-0.7-0.6-1.2-0.8c-0.5-0.2-1-0.3-1.5-0.3c-0.5,0-1,0.1-1.5,0.3c-0.4,0.2-0.8,0.4-1.2,0.8c-0.3,0.3-0.6,0.7-0.8,1.1
			C175.4,131.4,175.3,131.8,175.3,132.4z"/>
		<path class="st3" d="M187.9,132.4c0-0.9,0.2-1.7,0.5-2.4s0.8-1.4,1.4-2c0.6-0.6,1.3-1,2-1.3c0.8-0.3,1.6-0.5,2.5-0.5
			c0.9,0,1.7,0.2,2.5,0.5c0.8,0.3,1.4,0.8,2,1.3c0.6,0.6,1,1.2,1.3,2s0.5,1.6,0.5,2.4s-0.2,1.7-0.5,2.4c-0.3,0.8-0.7,1.4-1.3,2
			c-0.6,0.6-1.2,1-2,1.3c-0.8,0.3-1.6,0.5-2.5,0.5c-0.9,0-1.7-0.1-2.5-0.4c-0.8-0.3-1.4-0.7-2-1.3s-1-1.2-1.4-2
			C188,134.2,187.9,133.3,187.9,132.4z M190.5,132.4c0,0.5,0.1,1,0.3,1.4c0.2,0.4,0.4,0.8,0.8,1.1c0.3,0.3,0.7,0.6,1.1,0.8
			s0.9,0.3,1.4,0.3s1-0.1,1.4-0.3s0.8-0.4,1.1-0.8c0.3-0.3,0.6-0.7,0.8-1.1c0.2-0.4,0.3-0.9,0.3-1.4c0-0.5-0.1-1-0.3-1.4
			c-0.2-0.4-0.5-0.8-0.8-1.1c-0.3-0.3-0.7-0.6-1.1-0.8c-0.4-0.2-0.9-0.3-1.4-0.3s-1,0.1-1.4,0.3c-0.4,0.2-0.8,0.5-1.1,0.8
			c-0.3,0.3-0.6,0.7-0.8,1.1S190.5,131.9,190.5,132.4z"/>
		<path class="st3" d="M209.4,126.4h2.4c0,0.3,0,0.6,0.1,0.9s0,0.5,0.1,0.7c0,0.2,0,0.5,0.1,0.7c0,0.2,0,0.5,0.1,0.7
			c0.4-1,1-1.8,1.7-2.4c0.7-0.6,1.6-0.9,2.8-0.9c1.2,0,2.1,0.3,2.8,0.9s1.1,1.4,1.2,2.3c0.2-0.5,0.5-0.9,0.8-1.3
			c0.3-0.4,0.6-0.7,0.9-1c0.3-0.3,0.7-0.5,1.2-0.7s1-0.2,1.6-0.2c1.2,0,2.2,0.3,2.9,1c0.7,0.7,1.1,1.5,1.1,2.6v8.6h-2.7V131
			c0-0.6-0.2-1.1-0.6-1.5s-0.9-0.6-1.8-0.7c-1.1,0-2,0.4-2.6,1.1s-0.9,1.6-0.9,2.8v5.7h-2.7V131c0-0.6-0.2-1.1-0.6-1.5
			c-0.4-0.4-0.9-0.6-1.8-0.7c-1.1,0-2,0.4-2.6,1.1s-0.9,1.6-0.9,2.7v5.7h-2.7V126.4z"/>
		<path class="st3" d="M231.6,132.5c0-0.9,0.2-1.7,0.5-2.5c0.3-0.8,0.8-1.5,1.4-2c0.6-0.6,1.2-1,2-1.4c0.8-0.3,1.6-0.5,2.4-0.5
			c0.6,0,1.1,0.1,1.5,0.2c0.4,0.1,0.8,0.3,1.2,0.5c0.3,0.2,0.6,0.4,0.8,0.6c0.2,0.2,0.3,0.3,0.4,0.5l0.1-1.4h2.6v11.9h-2.7v-0.8
			c0-0.1,0-0.2,0-0.3c0-0.1,0-0.1,0-0.2c-0.1,0.1-0.2,0.2-0.4,0.4c-0.2,0.2-0.4,0.4-0.8,0.5s-0.7,0.3-1.1,0.4
			c-0.4,0.1-0.9,0.2-1.5,0.2c-0.9,0-1.8-0.2-2.5-0.5c-0.8-0.3-1.4-0.8-2-1.3c-0.6-0.6-1-1.2-1.3-1.9
			C231.7,134.1,231.6,133.3,231.6,132.5z M234.3,132.4c0,0.5,0.1,1,0.3,1.5s0.4,0.8,0.8,1.2c0.3,0.3,0.7,0.6,1.2,0.8
			s0.9,0.3,1.5,0.3c0.5,0,1-0.1,1.5-0.3c0.4-0.2,0.8-0.4,1.2-0.8s0.6-0.7,0.8-1.2c0.2-0.4,0.3-0.9,0.3-1.4s-0.1-1-0.3-1.4
			c-0.2-0.4-0.4-0.8-0.8-1.1s-0.7-0.6-1.2-0.8c-0.4-0.2-0.9-0.3-1.5-0.3c-0.5,0-1,0.1-1.5,0.3c-0.4,0.2-0.8,0.4-1.2,0.8
			c-0.3,0.3-0.6,0.7-0.8,1.1C234.4,131.4,234.3,131.8,234.3,132.4z"/>
		<path class="st3" d="M254.3,129.6c-0.5,0-1,0.1-1.5,0.2c-0.5,0.1-0.9,0.3-1.3,0.6c-0.4,0.3-0.7,0.6-0.9,1
			c-0.2,0.4-0.3,0.9-0.3,1.4v5.5h-2.7v-11.9h2.4c0,0.7,0.1,1.2,0.1,1.6c0,0.4,0.1,0.9,0.1,1.4c0.2-0.5,0.6-1,1-1.4
			c0.4-0.4,0.8-0.8,1.3-1s0.9-0.5,1.3-0.7c0.4-0.2,0.8-0.2,1.1-0.2L254.3,129.6z"/>
		<path class="st3" d="M256.4,121.8c0-0.5,0.2-0.9,0.5-1.2s0.7-0.5,1.1-0.5c0.4,0,0.8,0.2,1.1,0.5c0.3,0.3,0.5,0.7,0.5,1.2
			c0,0.5-0.2,0.9-0.5,1.2c-0.3,0.3-0.7,0.5-1.1,0.5c-0.4,0-0.8-0.2-1.1-0.5C256.6,122.7,256.4,122.3,256.4,121.8z M259.4,138.3h-2.7
			v-11.9h2.7V138.3z"/>
		<path class="st3" d="M262.7,126.4h2.4c0,0.7,0.1,1.2,0.1,1.6c0,0.4,0.1,0.9,0.1,1.4c0.4-1,1-1.8,1.8-2.4s1.8-0.9,2.9-0.9
			c1.2,0,2.2,0.3,2.9,1c0.7,0.7,1.1,1.5,1.1,2.6v8.6h-2.7V131c0-0.6-0.2-1.1-0.6-1.5c-0.4-0.4-1-0.6-1.7-0.7c-0.5,0-1,0.1-1.5,0.3
			c-0.5,0.2-0.8,0.5-1.2,0.8c-0.3,0.3-0.6,0.7-0.8,1.2c-0.2,0.5-0.3,1-0.3,1.5v5.7h-2.7V126.4z"/>
		<path class="st3" d="M276.6,132.4c0-0.9,0.2-1.7,0.5-2.4s0.8-1.4,1.4-2c0.6-0.6,1.3-1,2-1.3c0.8-0.3,1.6-0.5,2.5-0.5
			c0.9,0,1.7,0.2,2.5,0.5c0.8,0.3,1.4,0.8,2,1.3c0.6,0.6,1,1.2,1.3,2s0.5,1.6,0.5,2.4s-0.2,1.7-0.5,2.4c-0.3,0.8-0.7,1.4-1.3,2
			c-0.6,0.6-1.2,1-2,1.3c-0.8,0.3-1.6,0.5-2.5,0.5c-0.9,0-1.7-0.1-2.5-0.4c-0.8-0.3-1.4-0.7-2-1.3s-1-1.2-1.4-2
			C276.7,134.2,276.6,133.3,276.6,132.4z M279.2,132.4c0,0.5,0.1,1,0.3,1.4c0.2,0.4,0.4,0.8,0.8,1.1c0.3,0.3,0.7,0.6,1.1,0.8
			s0.9,0.3,1.4,0.3s1-0.1,1.4-0.3s0.8-0.4,1.1-0.8c0.3-0.3,0.6-0.7,0.8-1.1c0.2-0.4,0.3-0.9,0.3-1.4c0-0.5-0.1-1-0.3-1.4
			c-0.2-0.4-0.5-0.8-0.8-1.1c-0.3-0.3-0.7-0.6-1.1-0.8c-0.4-0.2-0.9-0.3-1.4-0.3s-1,0.1-1.4,0.3c-0.4,0.2-0.8,0.5-1.1,0.8
			c-0.3,0.3-0.6,0.7-0.8,1.1S279.2,131.9,279.2,132.4z"/>
	</g>
	<g>
		<path class="st4" d="M99.9,101.2V78.4h5.5c1,0,1.9,0.1,2.8,0.4c0.9,0.3,1.7,0.7,2.4,1.2c0.7,0.6,1.2,1.2,1.7,2.1s0.6,1.8,0.6,3
			c0,0.9-0.1,1.7-0.4,2.6c-0.3,0.8-0.7,1.6-1.3,2.2c-0.6,0.7-1.3,1.2-2.3,1.6c-0.9,0.4-2.1,0.6-3.4,0.6H102v9.2H99.9z M102,90h3.4
			c1,0,1.9-0.2,2.6-0.5c0.7-0.3,1.2-0.7,1.6-1.2c0.4-0.5,0.7-1,0.8-1.6c0.2-0.6,0.2-1.1,0.2-1.6c0-0.6-0.1-1.1-0.3-1.7
			s-0.5-1.1-1-1.5s-1-0.8-1.6-1.1c-0.7-0.3-1.4-0.4-2.3-0.4H102V90z"/>
		<path class="st4" d="M117.5,101.2V78.4h14.4v2h-12.2v8.4h10.9v2h-10.9v8.4h12.7v2H117.5z"/>
		<path class="st4" d="M149,79.6l-0.8,1.8c-0.7-0.3-1.6-0.6-2.5-0.8s-1.8-0.3-2.6-0.3c-0.8,0-1.5,0.1-2.1,0.3
			c-0.6,0.2-1.1,0.5-1.6,0.8c-0.4,0.3-0.8,0.7-1,1.2c-0.2,0.4-0.3,0.9-0.3,1.4c0,0.6,0.2,1.1,0.5,1.6c0.3,0.4,0.8,0.8,1.3,1.1
			c0.6,0.3,1.2,0.6,1.9,0.9c0.7,0.3,1.4,0.5,2.2,0.8c0.7,0.3,1.5,0.6,2.2,0.9c0.7,0.4,1.3,0.8,1.9,1.3c0.6,0.5,1,1.1,1.3,1.8
			s0.5,1.6,0.5,2.6c0,1-0.2,1.9-0.5,2.7c-0.4,0.8-0.9,1.5-1.6,2s-1.5,1-2.5,1.3c-1,0.3-2.1,0.5-3.4,0.5c-0.9,0-1.7-0.1-2.5-0.2
			c-0.8-0.2-1.4-0.4-2-0.6c-0.6-0.2-1.1-0.5-1.5-0.7c-0.4-0.2-0.8-0.4-1-0.6l1-1.9c0.4,0.2,0.8,0.5,1.3,0.7c0.5,0.2,1,0.4,1.5,0.6
			c0.5,0.2,1.1,0.3,1.6,0.4c0.6,0.1,1.1,0.2,1.6,0.2c0.6,0,1.2-0.1,1.9-0.2c0.7-0.2,1.3-0.4,1.9-0.8c0.6-0.4,1.1-0.8,1.5-1.4
			c0.4-0.6,0.6-1.3,0.6-2.1c0-1-0.3-1.8-0.9-2.4c-0.6-0.6-1.3-1.1-2.2-1.6c-0.9-0.4-1.8-0.8-2.8-1.2s-2-0.7-2.8-1.2
			c-0.9-0.5-1.6-1-2.2-1.7c-0.6-0.7-0.9-1.6-0.9-2.7c0-0.8,0.2-1.5,0.5-2.2c0.3-0.7,0.8-1.3,1.4-1.9c0.6-0.5,1.3-1,2.2-1.3
			c0.9-0.3,1.8-0.5,2.9-0.5c0.6,0,1.2,0,1.8,0.1c0.6,0.1,1.2,0.2,1.8,0.4c0.6,0.1,1.1,0.3,1.5,0.4C148.5,79.3,148.8,79.5,149,79.6z"
			/>
		<path class="st4" d="M168.6,101.2c-1.6-2-3.1-4-4.6-5.9c-1.5-1.9-3-3.9-4.6-5.9c-0.4,0.4-0.8,0.8-1.2,1.1
			c-0.4,0.4-0.8,0.7-1.2,1.1c0,1.7,0,3.3,0,4.8c0,1.5,0,3.2,0,4.8h-2.4V78.4h2.4V88c0,0.2,0,0.3,0,0.5c0,0.2,0,0.4-0.1,0.5
			c0.1-0.1,0.2-0.3,0.3-0.4c0.1-0.1,0.2-0.2,0.3-0.4c1.7-1.6,3.4-3.2,5-4.9c1.6-1.7,3.3-3.3,5-5h2.8c-1.6,1.6-3.1,3.2-4.7,4.8
			c-1.6,1.6-3.1,3.2-4.7,4.8c1.8,2.3,3.5,4.5,5.2,6.7c1.6,2.2,3.3,4.4,5.1,6.7H168.6z"/>
		<path class="st4" d="M171.5,89.8c0-1.6,0.3-3.1,0.9-4.5c0.6-1.4,1.4-2.7,2.5-3.7c1.1-1.1,2.3-1.9,3.7-2.5c1.4-0.6,2.9-0.9,4.5-0.9
			c1.6,0,3.1,0.3,4.5,0.9s2.7,1.5,3.7,2.5c1.1,1.1,1.9,2.3,2.5,3.7c0.6,1.4,0.9,2.9,0.9,4.5c0,1.6-0.3,3.1-0.9,4.5
			c-0.6,1.4-1.5,2.7-2.5,3.7c-1.1,1.1-2.3,1.9-3.7,2.5c-1.4,0.6-2.9,0.9-4.5,0.9c-1.6,0-3.1-0.3-4.5-0.9c-1.4-0.6-2.7-1.4-3.7-2.5
			c-1.1-1.1-1.9-2.3-2.5-3.7C171.8,92.9,171.5,91.4,171.5,89.8z M173.6,89.8c0,1.3,0.3,2.6,0.8,3.7c0.5,1.2,1.2,2.2,2,3s1.9,1.5,3,2
			c1.2,0.5,2.4,0.8,3.7,0.8s2.5-0.3,3.7-0.8c1.2-0.5,2.2-1.2,3-2c0.9-0.9,1.5-1.9,2-3c0.5-1.2,0.8-2.4,0.8-3.7
			c0-1.3-0.3-2.6-0.8-3.7c-0.5-1.2-1.2-2.2-2-3.1c-0.9-0.9-1.9-1.6-3-2.1c-1.2-0.5-2.4-0.8-3.7-0.8c-1.3,0-2.6,0.3-3.7,0.8
			c-1.1,0.5-2.1,1.2-3,2.1s-1.5,1.9-2,3.1C173.9,87.3,173.6,88.5,173.6,89.8z"/>
	</g>
</g>
</svg>
