<?xml version="1.0" encoding="utf-8"?>
<!-- Generator: Adobe Illustrator 19.0.0, SVG Export Plug-In . SVG Version: 6.00 Build 0)  -->
<svg version="1.1"
	 id="Capa_1" xmlns:dc="http://purl.org/dc/elements/1.1/" xmlns:cc="http://creativecommons.org/ns#" xmlns:rdf="http://www.w3.org/1999/02/22-rdf-syntax-ns#" xmlns:inkscape="http://www.inkscape.org/namespaces/inkscape" xmlns:sodipodi="http://sodipodi.sourceforge.net/DTD/sodipodi-0.dtd" xmlns:svg="http://www.w3.org/2000/svg"
	 xmlns="http://www.w3.org/2000/svg" xmlns:xlink="http://www.w3.org/1999/xlink" x="0px" y="0px" viewBox="-255 334 80 81"
	 style="enable-background:new -255 334 80 81;" xml:space="preserve">
<style type="text/css">
	.st0{fill:#787876;}
</style>
<g transform="translate(0,-952.36218)">
	<path class="st0" d="M-222,1286.4c-18.2,0-33,14.8-33,33c0,18.2,14.8,33,33,33c6.9,0,13.3-2.2,18.7-5.8l18.1,18.1
		c2.3,2.3,6.2,2.3,8.5,0c2.3-2.3,2.3-6.1,0-8.5l-18.1-18.1c3.7-5.3,5.8-11.8,5.8-18.7C-189,1301.2-203.9,1286.4-222,1286.4z
		 M-222,1298.4c11.7,0,21,9.3,21,21c0,11.7-9.3,21-21,21c-11.7,0-21-9.3-21-21C-243,1307.7-233.7,1298.4-222,1298.4z"/>
</g>
</svg>
