<?xml version="1.0" encoding="utf-8"?>
<!-- Generator: Adobe Illustrator 19.0.0, SVG Export Plug-In . SVG Version: 6.00 Build 0)  -->
<svg version="1.1" id="Capa_1" xmlns="http://www.w3.org/2000/svg" xmlns:xlink="http://www.w3.org/1999/xlink" x="0px" y="0px"
	 viewBox="-255 334 92.8 92.3" style="enable-background:new -255 334 92.8 92.3;" xml:space="preserve">
<style type="text/css">
	.st0{fill:#FFFFFF;}
</style>
<g>
	<path class="st0" d="M-168.3,393.6l-13.2-13.2c-0.1-0.1-0.1-0.2-0.1-0.3c0-0.1,0.1-0.3,0.1-0.4l13.2-13.2c4.4-4.4,4.4-11.5,0-15.8
		l-11.4-11.4c-2.1-2.1-4.9-3.3-7.9-3.3c-3,0-5.8,1.2-7.9,3.3l-13.2,13.2c-0.2,0.2-0.5,0.2-0.7,0l-13.2-13.2
		c-2.1-2.1-4.9-3.3-7.9-3.3s-5.8,1.2-7.9,3.3l-11.4,11.4c-4.4,4.4-4.4,11.5,0,15.8l13.2,13.2c0.1,0.1,0.1,0.2,0.1,0.3
		c0,0.1-0.1,0.3-0.1,0.4l-13.2,13.2c-4.4,4.4-4.4,11.5,0,15.8l11.4,11.4c2.1,2.1,4.9,3.3,7.9,3.3c3,0,5.8-1.2,7.9-3.3l13.2-13.2
		c0.1-0.1,0.2-0.1,0.3-0.1s0.3,0,0.4,0.1l13.2,13.2c2.1,2.1,4.9,3.3,7.9,3.3c3,0,5.8-1.2,7.9-3.3l11.4-11.4
		C-163.9,405-163.9,397.9-168.3,393.6z"/>
	<path class="st0" d="M-167.6,392.9l-12.9-12.9l12.9-12.9c4.7-4.7,4.7-12.5,0-17.2l-11.4-11.4c-2.3-2.3-5.3-3.6-8.6-3.6
		c-3.3,0-6.3,1.3-8.6,3.6l-12.9,12.9l-12.9-12.9c-2.3-2.3-5.3-3.6-8.6-3.6c-3.3,0-6.3,1.3-8.6,3.6l-11.4,11.4
		c-4.7,4.7-4.7,12.5,0,17.2l12.9,12.9l-12.9,12.9c-4.7,4.7-4.7,12.5,0,17.2l11.4,11.4c2.3,2.3,5.3,3.6,8.6,3.6
		c3.3,0,6.3-1.3,8.6-3.6l12.9-12.9l12.9,12.9c2.3,2.3,5.3,3.6,8.6,3.6c3.3,0,6.3-1.3,8.6-3.6l11.4-11.4
		C-162.8,405.3-162.8,397.6-167.6,392.9z M-168.3,409.4l-11.4,11.4c-2.1,2.1-4.9,3.3-7.9,3.3c-3,0-5.8-1.2-7.9-3.3l-13.2-13.2
		c-0.1-0.1-0.2-0.1-0.4-0.1s-0.3,0-0.3,0.1l-13.2,13.2c-2.1,2.1-4.9,3.3-7.9,3.3s-5.8-1.2-7.9-3.3l-11.4-11.4
		c-4.4-4.4-4.4-11.5,0-15.8l13.2-13.2c0.1-0.1,0.1-0.2,0.1-0.4c0-0.1-0.1-0.3-0.1-0.4l-13.2-13.2c-4.4-4.4-4.4-11.5,0-15.8
		l11.4-11.4c2.1-2.1,4.9-3.3,7.9-3.3c3,0,5.8,1.2,7.9,3.3l13.2,13.2c0.2,0.2,0.5,0.2,0.7,0l13.2-13.2c2.1-2.1,4.9-3.3,7.9-3.3
		s5.8,1.2,7.9,3.3l11.4,11.4c4.4,4.4,4.4,11.5,0,15.8l-13.2,13.2c-0.1,0.1-0.1,0.2-0.1,0.4c0,0.1,0.1,0.3,0.1,0.3l13.2,13.2
		C-163.9,397.9-163.9,405-168.3,409.4z"/>
</g>
</svg>
