<?xml version="1.0" encoding="utf-8"?>
<!-- Generator: Adobe Illustrator 19.0.0, SVG Export Plug-In . SVG Version: 6.00 Build 0)  -->
<svg version="1.1" id="Capa_1" xmlns="http://www.w3.org/2000/svg" xmlns:xlink="http://www.w3.org/1999/xlink" x="0px" y="0px"
	 viewBox="0 0 76.5 63.4" style="enable-background:new 0 0 76.5 63.4;" xml:space="preserve">
<style type="text/css">
	.st0{fill:#00AFBC;}
	.st1{fill:#1DB8C4;}
	.st2{fill:#21B9C5;}
</style>
<g>
	<path class="st0" d="M23.2,53.1c7.1-0.1,13.6-1.5,19.6-5c3.2-1.9,6-4.2,8.4-7c1.7-2,4.7-4.1-0.7-5.6c-2.2-0.6-1.9-3.2-0.7-4.7
		c2.7-3.7,0.6-4.7-2.6-5.7c-10.1-3.1-19.7-1.8-28.9,3.1c-1.3,0.7-2.3,2-4,1.7c-0.6-10.1,6.6-21.5,17-26.7
		c15.1-7.4,33.3-1.9,41.6,12.8c1.9,3.4,3.3,7,2.9,10.9c-0.3,3.5-2.3,6-5.7,6.8c-2.8,0.6-5.7,1.1-7.2-3c-0.6-1.8-3.8-2.7-6.2-4.2
		C58,36,67.1,39.3,76.5,34.4C76.9,45.8,67.3,58,55,61.9C43.2,65.6,29.1,61.9,23.2,53.1z"/>
	<path class="st1" d="M0,39.8c5.5-1.7,10.5-0.4,15.3,1.8c0.9,0.4,1.6,1,1.6,2.2c0,3.3-5.9,9.8-9.7,10.5C14,43.7,13.5,42.8,0,39.8z"
		/>
	<path class="st2" d="M42,32.3c0,1.6-0.7,2.4-2,2.5c-1.4,0.1-2.2-0.6-2.3-2c-0.1-1.4,0.6-2.2,2-2.3C41.1,30.4,41.7,31.2,42,32.3z"/>
</g>
</svg>
